<?xml version="1.0" encoding="utf-8"?>
<!-- Generator: Adobe Illustrator 19.0.0, SVG Export Plug-In . SVG Version: 6.00 Build 0)  -->
<svg version="1.1" id="Réteg_1" xmlns="http://www.w3.org/2000/svg" xmlns:xlink="http://www.w3.org/1999/xlink" x="0px" y="0px"
	 viewBox="2 -56 256 256" style="enable-background:new 2 -56 256 256;" xml:space="preserve">
<style type="text/css">
	.st0{fill:#DE4C36;}
	.st1{fill:#FFFFFF;stroke:#FFFFFF;stroke-miterlimit:10;}
</style>
<rect x="2" y="-56" class="st0" width="256" height="256"/>
<path class="st1" d="M231.3,62.6l-91.9-91.9c-5.3-5.3-13.9-5.3-19.2,0l-19.1,19.1L125.3,14c5.6-1.9,12.1-0.6,16.6,3.9
	c4.5,4.5,5.8,11,3.8,16.7L169,57.9c5.6-1.9,12.2-0.7,16.7,3.8c6.3,6.3,6.3,16.5,0,22.8c-6.3,6.3-16.5,6.3-22.8,0
	c-4.7-4.7-5.9-11.7-3.5-17.5l-21.8-21.8l0,57.3c1.5,0.8,3,1.8,4.3,3.1c6.3,6.3,6.3,16.5,0,22.8c-6.3,6.3-16.5,6.3-22.8,0
	c-6.3-6.3-6.3-16.5,0-22.8c1.6-1.6,3.4-2.7,5.3-3.5V44.2c-1.9-0.8-3.7-2-5.3-3.5c-4.8-4.8-5.9-11.8-3.5-17.6L91.7-0.8l-63,63
	c-5.3,5.3-5.3,13.9,0,19.2l91.9,91.9c5.3,5.3,13.9,5.3,19.2,0l91.5-91.5C236.6,76.5,236.6,67.9,231.3,62.6"/>
</svg>
